<svg class="umx-svg-logo" width="567" height="74" viewBox="0 0 567 74" fill="none" xmlns="http://www.w3.org/2000/svg">
<g clip-path="url(#clip0_4_300)">
<path d="M7.91404 12.1675H0.00292969V20.0253H7.91404V12.1675Z" fill="white"></path>
<path d="M7.91404 27.8818H0.00292969V60.0103H7.91404V27.8818Z" fill="white"></path>
<path fill-rule="evenodd" clip-rule="evenodd" d="M31.5019 36.0727C31.5019 31.8122 33.2058 27.7262 36.2388 24.7136C39.2719 21.701 43.3856 20.0085 47.675 20.0085C51.9643 20.0085 56.078 21.701 59.1111 24.7136C62.1441 27.7262 63.8481 31.8122 63.8481 36.0727H71.823C71.8198 31.3421 70.4046 26.7186 67.7563 22.7867C65.108 18.8548 61.3454 15.7911 56.9443 13.9829C52.5433 12.1748 47.7012 11.7033 43.0304 12.6281C38.3596 13.5529 34.0697 15.8325 30.703 19.1787C27.3364 22.5249 25.0442 26.7874 24.1162 31.4274C23.1882 36.0674 23.666 40.8766 25.4894 45.2468C27.3127 49.6171 30.3997 53.3523 34.3599 55.9802C38.3202 58.608 42.976 60.0107 47.7388 60.0107V52.0894C45.6135 52.0978 43.5075 51.69 41.541 50.8894C39.5746 50.0888 37.7862 48.9111 36.2783 47.4236C34.7704 45.9361 33.5723 44.168 32.7528 42.2203C31.9332 40.2727 31.5081 38.1837 31.5019 36.0727Z" fill="white"></path>
<path fill-rule="evenodd" clip-rule="evenodd" d="M111.524 12.1665C106.758 12.1603 102.098 13.5583 98.133 16.1838C94.1679 18.8093 91.076 22.5441 89.2487 26.9157C87.4214 31.2873 86.9408 36.099 87.8678 40.7419C88.7948 45.3849 91.0876 49.6503 94.4562 52.9984C97.8247 56.3465 102.118 58.6268 106.791 59.5506C111.465 60.4744 116.31 60.0003 120.712 58.1882C125.115 56.3761 128.877 53.3075 131.523 49.3708C134.169 45.434 135.579 40.8061 135.576 36.0728C135.572 29.7365 133.037 23.6606 128.528 19.1787C124.018 14.6968 117.903 12.1749 111.524 12.1665ZM111.524 52.137C108.324 52.1401 105.196 51.2006 102.534 49.4374C99.8725 47.6741 97.797 45.1663 96.5705 42.2313C95.3439 39.2962 95.0214 36.0657 95.6436 32.9485C96.2658 29.8313 97.8049 26.9675 100.066 24.7192C102.327 22.471 105.209 20.9395 108.347 20.3184C111.485 19.6972 114.737 20.0144 117.693 21.2298C120.65 22.4452 123.176 24.5042 124.954 27.1463C126.732 29.7884 127.681 32.8949 127.681 36.0728C127.681 40.3305 125.979 44.4141 122.95 47.4263C119.92 50.4384 115.81 52.1328 111.524 52.137Z" fill="white"></path>
<path fill-rule="evenodd" clip-rule="evenodd" d="M199.166 32.4457C198.19 26.5376 195.019 21.2077 190.28 17.5087C185.54 13.8096 179.576 12.0102 173.566 12.4659C167.556 12.9216 161.936 15.5992 157.817 19.97C153.698 24.3407 151.378 30.0868 151.316 36.0736C151.316 42.4181 153.854 48.5028 158.371 52.989C162.887 57.4753 169.013 59.9956 175.401 59.9956C181.788 59.9956 187.914 57.4753 192.431 52.989C196.947 48.5028 199.485 42.4181 199.485 36.0736C199.484 34.854 199.394 33.6362 199.214 32.4298L199.166 32.4457ZM175.353 52.1378C172.153 52.1409 169.025 51.2014 166.363 49.4382C163.701 47.6749 161.626 45.1671 160.399 42.2321C159.173 39.297 158.85 36.0665 159.473 32.9493C160.095 29.8321 161.634 26.9683 163.895 24.7201C166.156 22.4719 169.038 20.9403 172.176 20.3192C175.313 19.6981 178.566 20.0153 181.522 21.2306C184.478 22.446 187.005 24.505 188.783 27.1471C190.561 29.7892 191.51 32.8957 191.51 36.0736C191.512 38.1824 191.096 40.271 190.285 42.2199C189.474 44.1688 188.284 45.9398 186.783 47.4317C185.283 48.9236 183.501 50.1072 181.54 50.9147C179.578 51.7222 177.476 52.1378 175.353 52.1378Z" fill="white"></path>
<path d="M52.7622 35.5774L47.1536 41.1191L66.805 60.7407L72.4136 55.1989L52.7622 35.5774Z" fill="white"></path>
<path d="M247.606 58.7909H253.22C253.831 58.7306 254.447 58.7982 255.029 58.9892C255.612 59.1802 256.147 59.4905 256.602 59.8999C257.357 60.7799 257.745 61.9134 257.686 63.0684C257.774 64.2602 257.397 65.44 256.634 66.3636C256.23 66.7569 255.751 67.066 255.225 67.2728C254.699 67.4796 254.137 67.5798 253.571 67.5676C252.742 67.5676 251.131 67.5676 249.408 67.5676V72.8907H247.606V58.7909ZM249.408 65.8883C250.924 65.8883 252.423 65.8883 253.38 65.8883C253.748 65.9101 254.116 65.8504 254.458 65.7134C254.8 65.5764 255.108 65.3656 255.358 65.0962C255.739 64.5205 255.913 63.8339 255.852 63.1476C255.879 62.7861 255.832 62.423 255.714 62.08C255.596 61.737 255.41 61.4212 255.166 61.1514C254.558 60.7022 253.796 60.5087 253.045 60.6128H249.408V65.8883Z" fill="white"></path>
<path d="M259.774 63.0201H261.576V64.2242C261.981 63.9163 262.414 63.6459 262.868 63.4162C263.572 63.1002 264.319 62.8919 265.085 62.7983V64.5727C264.414 64.6866 263.761 64.8836 263.139 65.1589C262.575 65.3795 262.04 65.6667 261.544 66.0144V72.89H259.774V63.0201Z" fill="white"></path>
<path d="M265.964 68.0107C265.891 66.7895 266.127 65.5695 266.649 64.462C267.094 63.9287 267.648 63.4962 268.275 63.1935C268.901 62.8907 269.586 62.7247 270.282 62.7067C270.979 62.6887 271.671 62.8191 272.313 63.089C272.955 63.359 273.531 63.7623 274.002 64.2719C274.424 65.0314 274.623 65.893 274.577 66.7591C274.57 67.4228 274.512 68.0849 274.401 68.7394H267.718C267.686 69.3541 267.818 69.9663 268.101 70.5138C268.579 71.3059 269.361 71.6069 270.749 71.6069C271.864 71.5775 272.975 71.4449 274.066 71.2108V72.7951C272.93 73.0128 271.778 73.1346 270.621 73.1595C268.404 73.1595 267.431 72.5891 266.713 71.5752C266.102 70.4913 265.84 69.2471 265.964 68.0107ZM267.718 67.3453H272.742C272.758 67.0815 272.758 66.817 272.742 66.5532C272.762 66.0856 272.658 65.6212 272.439 65.2066C272.195 64.8709 271.866 64.606 271.485 64.4389C271.103 64.2718 270.684 64.2087 270.27 64.256C269.832 64.1933 269.384 64.2606 268.984 64.4494C268.584 64.6382 268.249 64.9402 268.021 65.3175C267.779 65.9649 267.675 66.6557 267.718 67.3453Z" fill="white"></path>
<path d="M278.949 63.0219V63.7189C279.932 63.1694 281.017 62.8244 282.139 62.705C282.85 62.6338 283.561 62.8445 284.117 63.2912C284.324 63.4623 284.488 63.6794 284.595 63.9249C285.628 63.2489 286.81 62.8304 288.04 62.705C288.465 62.6563 288.895 62.7068 289.297 62.8526C289.698 62.9984 290.06 63.2354 290.353 63.5447C290.959 64.4843 291.214 65.606 291.071 66.7131V72.8917H289.3V66.7607C289.379 66.1148 289.268 65.4602 288.981 64.8754C288.835 64.6978 288.645 64.5607 288.43 64.4774C288.215 64.3941 287.982 64.3675 287.753 64.4001C286.778 64.546 285.844 64.8913 285.01 65.4141V72.8917H283.239V66.5547C283.299 65.981 283.206 65.4018 282.968 64.8754C282.835 64.6952 282.654 64.5553 282.446 64.4714C282.238 64.3875 282.01 64.3628 281.788 64.4001C280.785 64.5355 279.82 64.8695 278.949 65.3824V72.8917H277.178V63.0219H278.949Z" fill="white"></path>
<path d="M294.052 61.4387V58.793H295.854V61.4387H294.052ZM294.052 72.8927V63.0229H295.822V72.8927H294.052Z" fill="white"></path>
<path d="M300.609 63.0215V68.9941C300.521 69.6914 300.649 70.3988 300.976 71.0219C301.263 71.418 301.726 71.5447 302.571 71.5447C303.49 71.5357 304.403 71.397 305.282 71.1328V63.0215H307.053V72.4319C305.554 72.9011 303.998 73.1623 302.427 73.2082C301.923 73.2617 301.412 73.2012 300.934 73.0311C300.457 72.861 300.024 72.5858 299.668 72.2259C299.071 71.2817 298.807 70.167 298.918 69.0575V63.0215H300.609Z" fill="white"></path>
<path d="M311.757 63.0219V63.719C312.741 63.1715 313.826 62.8266 314.947 62.705C315.657 62.6406 316.366 62.8505 316.925 63.2912C317.13 63.4607 317.289 63.6786 317.387 63.9249C318.422 63.2539 319.603 62.8359 320.832 62.705C321.259 62.6563 321.692 62.7067 322.096 62.8525C322.5 62.9982 322.865 63.2351 323.161 63.5447C323.762 64.4864 324.01 65.6079 323.863 66.7132V72.8917H322.188V66.7607C322.267 66.1149 322.156 65.4602 321.869 64.8755C321.726 64.6979 321.539 64.5606 321.327 64.4772C321.114 64.3938 320.883 64.3672 320.657 64.4002C319.677 64.5457 318.737 64.8909 317.898 65.4141V72.8917H316.127V66.5548C316.19 65.9825 316.103 65.4037 315.872 64.8755C315.738 64.6966 315.557 64.5578 315.349 64.474C315.141 64.3902 314.913 64.3647 314.692 64.4002C313.684 64.5351 312.713 64.8691 311.837 65.3824V72.8917H310.066V63.0219H311.757Z" fill="white"></path>
<path d="M331.998 58.7909H337.612C338.222 58.7306 338.839 58.7982 339.421 58.9892C340.003 59.1802 340.539 59.4905 340.993 59.8999C341.754 60.7775 342.148 61.9113 342.094 63.0684C342.172 64.2591 341.796 65.4354 341.041 66.3636C340.634 66.7574 340.153 67.0667 339.624 67.2734C339.095 67.4801 338.531 67.5801 337.963 67.5676C337.133 67.5676 335.522 67.5676 333.816 67.5676V72.8907H331.998V58.7909ZM333.816 65.8883C335.315 65.8883 336.814 65.8883 337.787 65.8883C338.16 65.8909 338.529 65.8096 338.866 65.6505C339.203 65.4914 339.5 65.2585 339.733 64.9694C340.114 64.3938 340.289 63.7071 340.228 63.0208C340.279 62.2936 340.038 61.5759 339.558 61.0247C338.943 60.576 338.176 60.3828 337.421 60.486H333.8L333.816 65.8883Z" fill="white"></path>
<path d="M344.182 64.3386C344.57 63.7747 345.108 63.3282 345.735 63.0487C346.363 62.7691 347.056 62.6673 347.739 62.7544C349.213 62.8581 350.659 63.2117 352.013 63.8V72.8936H350.243V71.3093C349.956 71.5628 349.605 71.848 349.174 72.1648C348.504 72.7582 347.647 73.1001 346.75 73.1312C346.195 73.1641 345.642 73.0307 345.165 72.7482C344.687 72.4658 344.306 72.0472 344.07 71.547C343.573 70.3815 343.344 69.1203 343.4 67.8557C343.358 66.6366 343.627 65.4266 344.182 64.3386ZM345.522 70.5964C345.627 70.8921 345.828 71.1445 346.094 71.3138C346.36 71.4831 346.675 71.5596 346.989 71.5311C347.685 71.4432 348.336 71.1444 348.855 70.6756C349.35 70.2954 349.86 69.8677 350.243 69.535V64.9723C349.474 64.6436 348.654 64.4506 347.818 64.402C347.4 64.3444 346.973 64.4115 346.592 64.5948C346.212 64.7781 345.895 65.0694 345.681 65.4318C345.299 66.2484 345.129 67.1471 345.187 68.0458C345.153 68.9086 345.266 69.7709 345.522 70.5964Z" fill="white"></path>
<path d="M355.044 63.0201H356.814V64.2242C357.219 63.9163 357.652 63.6459 358.106 63.4162C358.81 63.1002 359.557 62.8919 360.323 62.7983V64.5727C359.653 64.6866 358.999 64.8836 358.377 65.1589C357.813 65.3795 357.278 65.6667 356.782 66.0144V72.89H355.044V63.0201Z" fill="white"></path>
<path d="M362.062 60.4858H363.833V63.1632H366.847V64.7475H363.801V68.8506C363.773 69.3361 363.773 69.8227 363.801 70.3081C363.818 70.4913 363.893 70.6642 364.017 70.8011C364.141 70.9381 364.305 71.0319 364.487 71.0686C365.087 71.2168 365.702 71.2965 366.321 71.3062V72.9697C365.347 72.9479 364.379 72.8204 363.434 72.5895C363.149 72.529 362.885 72.3966 362.667 72.2051C362.45 72.0136 362.285 71.7695 362.19 71.4963C361.975 70.6425 361.905 69.7591 361.983 68.8823L362.062 60.4858Z" fill="white"></path>
<path d="M370.501 63.0213V63.6867C371.576 63.159 372.737 62.8264 373.93 62.7045C374.358 62.6577 374.792 62.7107 375.196 62.8592C375.6 63.0077 375.964 63.2476 376.259 63.56C376.888 64.4902 377.149 65.6186 376.992 66.7285V72.8912H375.222V66.7285C375.302 66.0912 375.185 65.4448 374.887 64.8749C374.729 64.6944 374.528 64.5563 374.302 64.4733C374.077 64.3902 373.833 64.3649 373.595 64.3996C372.514 64.5269 371.466 64.849 370.501 65.3502V72.8912H368.73V63.0213H370.501Z" fill="white"></path>
<path d="M379.606 68.0116C379.53 66.7885 379.772 65.5667 380.308 64.4629C380.742 63.9183 381.292 63.4752 381.918 63.1647C382.545 62.8541 383.232 62.6838 383.931 62.6657C384.631 62.6476 385.326 62.7821 385.967 63.0597C386.609 63.3374 387.181 63.7515 387.644 64.2728C388.066 65.0328 388.27 65.893 388.235 66.7601C388.222 67.4241 388.158 68.0862 388.043 68.7404H381.36C381.334 69.3564 381.471 69.9684 381.759 70.5147C382.221 71.3068 383.019 71.6078 384.391 71.6078C385.512 71.5772 386.628 71.4446 387.724 71.2118V72.796C386.588 73.0119 385.436 73.1338 384.279 73.1604C382.062 73.1604 381.089 72.5901 380.355 71.5761C379.752 70.4894 379.49 69.2475 379.606 68.0116ZM381.36 67.3462H386.448C386.462 67.0824 386.462 66.818 386.448 66.5541C386.476 66.0859 386.371 65.6193 386.145 65.2075C385.904 64.8732 385.577 64.6088 385.198 64.4417C384.82 64.2747 384.404 64.2109 383.992 64.2569C383.551 64.1951 383.102 64.2627 382.7 64.4513C382.297 64.6399 381.959 64.9413 381.727 65.3184C381.468 65.9624 381.349 66.6533 381.376 67.3462H381.36Z" fill="white"></path>
<path d="M390.772 63.0215H392.542V64.2256C392.987 63.8999 393.462 63.6186 393.962 63.3859C394.67 63.0681 395.423 62.8598 396.195 62.7681V64.5424C395.519 64.6564 394.86 64.8533 394.233 65.1286C393.669 65.3492 393.133 65.6364 392.638 65.9841V72.8914H390.772V63.0215Z" fill="white"></path>
<path d="M423.948 27.5509C423.857 25.4951 424.343 23.4546 425.352 21.6575C426.692 19.6931 428.701 18.6158 432.242 18.6158C433.527 18.5031 434.82 18.7107 436.004 19.2197C437.187 19.7287 438.224 20.5231 439.021 21.5308C440.159 23.3285 440.716 25.4295 440.616 27.5509C440.722 29.591 440.211 31.6159 439.148 33.3651C438.375 34.4402 437.328 35.2926 436.115 35.8352C434.902 36.3779 433.566 36.5915 432.242 36.4543C428.606 36.4543 426.787 35.3771 425.448 33.5393C424.371 31.7367 423.85 29.6603 423.948 27.5667M428.733 27.5667C428.676 28.6848 428.895 29.7998 429.371 30.8144C429.678 31.2985 430.116 31.6864 430.636 31.9332C431.155 32.1799 431.734 32.2754 432.306 32.2086C432.848 32.2512 433.391 32.1557 433.885 31.9311C434.379 31.7065 434.808 31.3603 435.129 30.9253C435.731 29.878 435.998 28.6734 435.895 27.4717C435.985 26.2508 435.69 25.0323 435.049 23.9863C434.726 23.5838 434.304 23.2705 433.823 23.0763C433.343 22.8821 432.821 22.8136 432.306 22.8774C431.745 22.8027 431.174 22.8881 430.66 23.1238C430.146 23.3594 429.71 23.7355 429.403 24.2081C428.889 25.2505 428.658 26.4083 428.733 27.5667Z" fill="white"></path>
<path d="M444.063 14.7026H448.736V19.4554H453.968V23.6219H448.736V28.5331C448.707 29.1958 448.75 29.8598 448.864 30.5134C448.92 30.7864 449.056 31.0369 449.255 31.234C449.453 31.4311 449.705 31.5661 449.98 31.6224C451.027 31.8625 452.096 31.9899 453.17 32.0026V36.1533C451.08 36.1518 448.998 35.9072 446.966 35.4245C446.427 35.3052 445.925 35.0585 445.503 34.7055C445.081 34.3525 444.751 33.9035 444.541 33.3967C444.118 31.8877 443.978 30.3143 444.127 28.7549L444.063 14.7026Z" fill="white"></path>
<path d="M455.879 27.5502C455.788 25.4944 456.274 23.4539 457.283 21.6568C458.639 19.6924 460.648 18.6151 464.189 18.6151C465.474 18.5039 466.766 18.7121 467.95 19.221C469.133 19.7299 470.17 20.5235 470.968 21.5301C472.099 23.331 472.655 25.4296 472.563 27.5502C472.672 29.5927 472.155 31.62 471.079 33.3644C470.305 34.447 469.254 35.3044 468.034 35.8476C466.814 36.3908 465.47 36.6 464.141 36.4537C460.489 36.4537 458.67 35.3764 457.331 33.5386C456.254 31.7361 455.733 29.6597 455.831 27.566M460.616 27.566C460.563 28.6855 460.788 29.8007 461.27 30.8137C461.577 31.2978 462.015 31.6857 462.535 31.9325C463.054 32.1792 463.633 32.2747 464.205 32.2079C464.744 32.2477 465.284 32.1509 465.775 31.9264C466.266 31.702 466.692 31.3573 467.012 30.9246C467.621 29.8799 467.889 28.6732 467.778 27.471C467.873 26.2518 467.583 25.0335 466.948 23.9857C466.624 23.5843 466.202 23.2718 465.721 23.0777C465.241 22.8837 464.719 22.8145 464.205 22.8767C463.644 22.802 463.073 22.8875 462.559 23.1231C462.045 23.3588 461.609 23.7349 461.302 24.2075C460.781 25.2481 460.545 26.4062 460.616 27.566Z" fill="white"></path>
<path d="M476.01 19.1387H480.667V21.0557C481.328 20.5608 482.033 20.126 482.772 19.7566C483.998 19.2373 485.293 18.8958 486.616 18.7427V23.4004C485.356 23.5774 484.12 23.8963 482.932 24.3509C482.139 24.6655 481.38 25.0582 480.667 25.5232V35.9H476.01V19.1387Z" fill="white"></path>
<path d="M487.667 23.9061C487.627 23.1798 487.749 22.4537 488.025 21.7799C488.301 21.1061 488.723 20.5012 489.262 20.0088C490.832 18.889 492.764 18.3866 494.685 18.5989C496.897 18.7107 499.092 19.0344 501.241 19.5653V23.7793C499.13 23.2036 496.965 22.8427 494.781 22.7021C494.105 22.6127 493.417 22.7229 492.803 23.0189C492.666 23.1194 492.557 23.2546 492.49 23.4106C492.423 23.5667 492.399 23.7377 492.42 23.9061C492.4 24.0969 492.445 24.289 492.55 24.4504C492.654 24.6118 492.811 24.7328 492.995 24.7933C493.51 25.0016 494.044 25.1607 494.59 25.2685L497.493 26.029C498.753 26.2558 499.922 26.8389 500.858 27.7083C501.653 28.6584 502.072 29.8636 502.038 31.0985C502.095 31.792 501.989 32.4891 501.729 33.1351C501.469 33.7811 501.062 34.3584 500.539 34.8215C498.78 36.0931 496.61 36.6743 494.446 36.4533C492.239 36.3479 490.043 36.0832 487.875 35.6612V31.4154C490.198 31.9612 492.57 32.2743 494.956 32.3501C495.577 32.4222 496.206 32.3236 496.775 32.0649C496.927 31.9671 497.049 31.8297 497.128 31.6676C497.206 31.5056 497.239 31.3252 497.221 31.1461C497.235 30.9643 497.195 30.7826 497.108 30.6225C497.02 30.4624 496.888 30.3307 496.727 30.2431C496.093 29.9816 495.437 29.78 494.765 29.641L491.735 28.8172C490.605 28.6061 489.568 28.0527 488.768 27.233C488.022 26.2862 487.638 25.1075 487.683 23.9061" fill="white"></path>
<path d="M505.292 19.138H509.886V20.4846C510.316 20.2311 511.114 19.7875 511.88 19.4073C512.865 18.8962 513.957 18.6196 515.069 18.5994C515.963 18.5636 516.851 18.7596 517.645 19.1679C518.439 19.5762 519.113 20.1829 519.599 20.9282C520.785 22.8698 521.341 25.126 521.194 27.3919C521.308 29.6498 520.754 31.8915 519.599 33.8398C519.093 34.645 518.387 35.308 517.549 35.7656C516.712 36.2232 515.77 36.4601 514.814 36.4538C513.171 36.3318 511.557 35.9577 510.029 35.3448V41.9986H505.292V19.138ZM509.966 31.0674C511.097 31.6632 512.33 32.0446 513.602 32.1922C514.035 32.2342 514.472 32.1539 514.861 31.9605C515.251 31.7671 515.577 31.4685 515.803 31.099C516.396 30.0022 516.662 28.7602 516.569 27.5186C516.668 26.2361 516.402 24.9518 515.803 23.8115C515.611 23.4919 515.333 23.2311 515.001 23.0579C514.669 22.8846 514.295 22.8055 513.921 22.8293C513.293 22.8738 512.682 23.0579 512.135 23.3679C511.389 23.74 510.665 24.1525 509.966 24.6036V31.0674Z" fill="white"></path>
<path d="M524.178 27.5506C524.086 25.4949 524.572 23.4543 525.581 21.6572C526.921 19.6928 528.931 18.6155 532.471 18.6155C533.756 18.5014 535.05 18.7083 536.234 19.2174C537.418 19.7265 538.455 20.5217 539.25 21.5305C540.389 23.3282 540.945 25.4292 540.845 27.5506C540.951 29.5907 540.44 31.6156 539.378 33.3648C538.605 34.4412 537.559 35.2944 536.345 35.8372C535.132 36.38 533.795 36.5929 532.471 36.4541C528.835 36.4541 527.017 35.3768 525.677 33.5391C524.6 31.7365 524.079 29.6601 524.178 27.5665M528.962 27.5665C528.905 28.6845 529.124 29.7995 529.6 30.8142C529.907 31.2983 530.345 31.6862 530.865 31.9329C531.384 32.1796 531.963 32.2751 532.535 32.2083C533.077 32.2509 533.62 32.1554 534.115 31.9308C534.609 31.7063 535.037 31.3601 535.358 30.9251C535.967 29.8803 536.235 28.6736 536.124 27.4714C536.222 26.2499 535.926 25.0291 535.279 23.9861C534.954 23.5847 534.532 23.2722 534.052 23.0781C533.572 22.8841 533.05 22.8149 532.535 22.8771C531.974 22.8024 531.403 22.8879 530.889 23.1235C530.375 23.3592 529.939 23.7353 529.632 24.2079C529.118 25.2502 528.887 26.4081 528.962 27.5665Z" fill="white"></path>
<path d="M544.289 19.1382H548.963V21.0552C549.624 20.5603 550.328 20.1255 551.068 19.7561C552.289 19.2386 553.578 18.8972 554.896 18.7422V23.3999C553.641 23.5767 552.41 23.8956 551.227 24.3504C550.435 24.665 549.676 25.0577 548.963 25.5227V35.8995H544.289V19.1382Z" fill="white"></path>
<path d="M557.032 14.7026H561.706V19.4554H566.937V23.6219H561.706V28.5331C561.676 29.1958 561.719 29.8598 561.833 30.5134C561.89 30.7864 562.026 31.0369 562.224 31.234C562.423 31.4311 562.675 31.5661 562.95 31.6224C563.996 31.8625 565.066 31.9899 566.14 32.0026V36.1533C564.05 36.1518 561.968 35.9072 559.935 35.4245C559.398 35.3027 558.897 35.0552 558.476 34.7025C558.054 34.3497 557.723 33.9021 557.511 33.3967C557.088 31.8877 556.947 30.3143 557.096 28.7549L557.032 14.7026Z" fill="white"></path>
<path d="M365.237 11.9775V21.8632L371.043 11.9775H380.102V35.8996H371.633V26.0139L365.811 35.8996H357.804V26.0139L351.999 35.8996H341.966L356.018 11.9775H365.237Z" fill="white"></path>
<path d="M335.937 11.9775L321.901 35.8996H311.853L325.905 11.9775H335.937Z" fill="#0066B1"></path>
<path d="M345.987 11.9775L331.935 35.8996H321.903L335.939 11.9775H345.987Z" fill="#003D78"></path>
<path d="M356.019 11.9775L341.967 35.8996H331.935L345.986 11.9775H356.019Z" fill="#E22718"></path>
<path d="M271.722 0.0166016C266.958 0.0166016 262.302 1.41961 258.341 4.0482C254.381 6.67679 251.294 10.4129 249.471 14.7841C247.648 19.1553 247.171 23.9652 248.1 28.6056C249.03 33.2461 251.323 37.5086 254.692 40.8541C258.06 44.1997 262.351 46.4781 267.023 47.4011C271.695 48.3241 276.538 47.8504 280.938 46.0398C285.339 44.2292 289.101 41.163 291.747 37.2291C294.393 33.2951 295.806 28.67 295.806 23.9387C295.806 17.5941 293.268 11.5095 288.752 7.02321C284.235 2.53696 278.109 0.0166016 271.722 0.0166016ZM294.243 23.9387C294.249 28.3643 292.934 32.6923 290.463 36.3751C287.992 40.0579 284.477 42.93 280.362 44.628C276.248 46.3259 271.718 46.7735 267.348 45.9139C262.977 45.0544 258.961 42.9264 255.808 39.7992C252.655 36.672 250.507 32.6862 249.636 28.3461C248.764 24.006 249.208 19.5066 250.912 15.4173C252.615 11.3279 255.502 7.8324 259.206 5.373C262.911 2.9136 267.266 1.60085 271.722 1.60084C277.689 1.60084 283.413 3.95327 287.635 8.14152C291.858 12.3298 294.234 18.0114 294.243 23.9387Z" fill="white"></path>
<path d="M283.399 13.7831C283.718 14.1316 284.197 14.7019 284.452 15.0346L289.333 11.9612C289.093 11.6443 288.695 11.1691 288.408 10.8364L285.329 12.8642L285.122 13.0385L285.265 12.8167L286.637 10.1076L285.664 9.14124L282.953 10.5037L282.713 10.6621L282.905 10.4562L284.946 7.38273C284.58 7.08172 284.245 6.79656 283.798 6.46387L280.72 11.2958C281.118 11.5968 281.629 12.0404 281.964 12.3414L284.867 10.7572L285.058 10.6304L284.915 10.8047L283.399 13.7831Z" fill="white"></path>
<path d="M272.328 7.6529L273.652 4.76958L273.748 4.50026V4.78542L273.891 8.74603C274.354 8.74603 274.848 8.85693 275.311 8.93614L275.103 3.0586C274.433 3.0586 273.78 2.93186 273.11 2.91602L271.802 6.0845L270.494 2.91602C269.824 2.91602 269.17 2.99523 268.5 3.0586L268.277 8.93614C268.755 8.86221 269.234 8.79884 269.712 8.74603L269.856 4.78542V4.50026V4.76958L271.148 7.6529H272.328Z" fill="white"></path>
<path d="M261.581 12.3258C262.362 11.5178 262.793 10.599 262.011 9.69596C261.801 9.46985 261.525 9.31466 261.222 9.25216C260.919 9.18966 260.604 9.22297 260.321 9.34743C260.392 9.08216 260.385 8.802 260.3 8.54063C260.215 8.27927 260.056 8.04781 259.842 7.87408C259.529 7.6461 259.144 7.53909 258.758 7.57307C258.04 7.57307 257.482 8.1434 255.966 9.8227C255.504 10.3297 254.834 11.1218 254.371 11.6446L258.534 15.5735C259.922 13.9893 260.48 13.4823 261.565 12.405M256.142 11.4545C256.802 10.6419 257.51 9.86953 258.263 9.14148C258.392 9.02243 258.544 8.93078 258.71 8.87215C258.777 8.85589 258.847 8.85333 258.915 8.86462C258.983 8.87592 259.048 8.90084 259.106 8.93787C259.164 8.9749 259.214 9.02327 259.253 9.08005C259.292 9.13684 259.319 9.20085 259.332 9.26822C259.343 9.41101 259.32 9.55445 259.265 9.68667C259.209 9.81889 259.123 9.93612 259.013 10.0287C258.566 10.5198 256.939 12.2149 256.939 12.2149L256.142 11.4545ZM257.737 13.0387L259.826 10.8366C259.965 10.6819 260.126 10.5485 260.305 10.4406C260.392 10.3905 260.491 10.3641 260.592 10.3641C260.693 10.3641 260.792 10.3905 260.879 10.4406C260.965 10.4945 261.031 10.5742 261.069 10.6683C261.106 10.7623 261.112 10.8656 261.086 10.9634C261.001 11.2047 260.859 11.4221 260.672 11.5971C260.464 11.8347 258.582 13.8308 258.582 13.8308L257.737 13.0387Z" fill="white"></path>
<path d="M271.723 9.74365V24.0018H257.368C257.368 20.2203 258.88 16.5937 261.572 13.9198C264.264 11.2459 267.915 9.74365 271.723 9.74365Z" fill="#0066B1"></path>
<path d="M285.998 23.9385C286.01 25.8077 285.65 27.661 284.938 29.3913C284.226 31.1217 283.177 32.695 281.85 34.0205C280.523 35.3459 278.945 36.3973 277.207 37.1141C275.468 37.8309 273.605 38.1988 271.723 38.1967V23.9385H285.998Z" fill="#0066B1"></path>
<path d="M396.145 11.9766H402.317L408.219 25.3951L414.136 11.9766H420.197V35.8986H415.54V19.1849L410.276 31.1459H406.082L400.818 19.1849V35.8986H396.145V11.9766Z" fill="white"></path>
<path d="M285.998 23.9384H271.723V9.68018C275.516 9.70111 279.147 11.2125 281.822 13.8842C284.496 16.5559 285.998 20.1705 285.998 23.9384Z" fill="white"></path>
<path d="M271.723 38.1161C267.915 38.1161 264.264 36.6139 261.572 33.94C258.88 31.266 257.368 27.6394 257.368 23.8579H271.723V38.1161Z" fill="white"></path>
<path d="M224.591 0.000976562H222.438V72.892H224.591V0.000976562Z" fill="white"></path>
</g>
<defs>
<clipPath id="clip0_4_300">
<rect width="567" height="74" fill="white"></rect>
</clipPath>
</defs>
</svg>